HIERARCHY
ROOT Hips
{
 OFFSET 0.000000 0.000000 0.000000
 CHANNELS 6 Xposition Yposition Zposition Yrotation Xrotation Zrotation
 JOINT Chest
 {
  OFFSET 0.000000 9.585900 0.002600
  CHANNELS 3 Yrotation Xrotation Zrotation
  JOINT Chest2
  {
   OFFSET 0.000000 9.601200 -0.005300
   CHANNELS 3 Yrotation Xrotation Zrotation
   JOINT Chest3
   {
    OFFSET 0.000000 9.561800 0.000000
    CHANNELS 3 Yrotation Xrotation Zrotation
    JOINT Chest4
    {
     OFFSET 0.000000 9.552100 0.000000
     CHANNELS 3 Yrotation Xrotation Zrotation
     JOINT Neck
     {
      OFFSET 0.000000 14.453000 0.000000
      CHANNELS 3 Yrotation Xrotation Zrotation
      JOINT Head
      {
       OFFSET 0.000000 8.936500 -0.011300
       CHANNELS 3 Yrotation Xrotation Zrotation
       End Site
       {
        OFFSET 0.000000 17.073600 -0.006000
       }
      }
     }
     JOINT RightCollar
     {
      OFFSET -2.921100 9.558500 0.000000
      CHANNELS 3 Yrotation Xrotation Zrotation
      JOINT RightShoulder
      {
       OFFSET -13.519700 0.000000 0.000000
       CHANNELS 3 Yrotation Xrotation Zrotation
       JOINT RightElbow
       {
        OFFSET 0.000000 -29.696600 0.000000
        CHANNELS 3 Yrotation Xrotation Zrotation
        JOINT RightWrist
        {
         OFFSET 0.000000 -24.004700 0.000000
         CHANNELS 3 Yrotation Xrotation Zrotation
         End Site
         {
          OFFSET 0.000000 -17.728500 0.000000
         }
        }
       }
      }
     }
     JOINT LeftCollar
     {
      OFFSET 2.921100 9.558500 0.000000
      CHANNELS 3 Yrotation Xrotation Zrotation
      JOINT LeftShoulder
      {
       OFFSET 13.519700 0.000000 0.000000
       CHANNELS 3 Yrotation Xrotation Zrotation
       JOINT LeftElbow
       {
        OFFSET 0.000000 -29.696600 0.000000
        CHANNELS 3 Yrotation Xrotation Zrotation
        JOINT LeftWrist
        {
         OFFSET 0.000000 -24.004700 0.000000
         CHANNELS 3 Yrotation Xrotation Zrotation
         End Site
         {
          OFFSET 0.000000 -17.728500 0.000000
         }
        }
       }
      }
     }
    }
   }
  }
 }
 JOINT RightHip
 {
  OFFSET -7.771700 -0.012900 -0.001300
  CHANNELS 3 Yrotation Xrotation Zrotation
  JOINT RightKnee
  {
   OFFSET 0.000000 -40.869800 0.001200
   CHANNELS 3 Yrotation Xrotation Zrotation
   JOINT RightAnkle
   {
    OFFSET 0.000000 -39.717900 0.002100
    CHANNELS 3 Yrotation Xrotation Zrotation
    JOINT RightToe
    {
     OFFSET 0.000000 -4.965400 11.033500
     CHANNELS 3 Yrotation Xrotation Zrotation
     End Site
     {
      OFFSET 0.000000 -1.423100 5.872300
     }
    }
   }
  }
 }
 JOINT LeftHip
 {
  OFFSET 7.771700 -0.012900 -0.001300
  CHANNELS 3 Yrotation Xrotation Zrotation
  JOINT LeftKnee
  {
   OFFSET 0.000000 -40.869800 0.001200
   CHANNELS 3 Yrotation Xrotation Zrotation
   JOINT LeftAnkle
   {
    OFFSET 0.000000 -39.717900 0.002100
    CHANNELS 3 Yrotation Xrotation Zrotation
    JOINT LeftToe
    {
     OFFSET 0.000000 -4.965400 11.033500
     CHANNELS 3 Yrotation Xrotation Zrotation
     End Site
     {
      OFFSET 0.000000 -1.423100 5.872300
     }
    }
   }
  }
 }
}
MOTION
Frames: 15
Frame Time: 0.008333
-150.561664 49.353094 19.105417 171.233664 -34.575277 -5.384804 1.079391 20.245743 2.621549 0.097559 2.557432 0.230206 0.164232 4.189272 0.376803 0.849537 17.376771 1.654124 6.169884 19.098992 -1.788912 11.942701 0.118982 -5.155902 -0.314853 -3.576440 -1.921944 5.789645 -11.398168 -13.056891 -38.933640 -42.166978 90.695828 2.797923 1.120041 -5.669274 -1.402930 -2.388503 3.229662 -3.837615 -3.378095 12.281847 70.505953 -60.062405 -110.882971 5.724468 5.524553 5.237471 -11.460683 -48.574076 3.121591 -125.899075 84.977416 -112.344517 -30.396538 -3.045149 -7.251644 0.091460 -13.001101 -1.212271 -17.125735 -51.100634 24.594019 -80.226173 67.178015 -83.393214 30.402549 5.245067 12.821940 0.015806 -0.726925 0.014463
-150.560898 49.354576 19.104718 171.246136 -34.561720 -5.368886 1.067672 20.241986 2.609240 0.093620 2.552954 0.225516 0.171173 4.194161 0.381028 0.865266 17.384969 1.669070 6.183860 19.101640 -1.785899 12.007051 0.145128 -5.139753 -0.327947 -3.589537 -1.922579 5.824850 -11.399418 -13.066536 -38.939965 -42.160730 90.667212 2.801237 1.119023 -5.660610 -1.419145 -2.402256 3.215041 -3.820559 -3.369808 12.328162 70.524524 -60.039656 -110.920770 5.683326 5.551804 5.236332 -11.434097 -48.595975 3.088074 -125.989457 84.973473 -112.435022 -30.373591 -3.040258 -7.251378 0.086138 -13.001323 -1.207518 -17.119389 -51.111330 24.577697 -80.187028 67.174294 -83.366591 30.403272 5.250263 12.828855 0.012447 -0.727304 0.014114
-150.560143 49.355948 19.104031 171.254847 -34.548724 -5.355235 1.065216 20.237596 2.602600 0.093771 2.553501 0.225991 0.166515 4.192812 0.377677 0.864193 17.382723 1.669468 6.228286 19.118964 -1.766841 12.076336 0.167904 -5.122684 -0.316971 -3.590277 -1.914163 5.832472 -11.399700 -13.075072 -38.939897 -42.157551 90.652150 2.801836 1.125798 -5.646778 -1.410034 -2.408841 3.214164 -3.815698 -3.368054 12.351926 70.519069 -60.029991 -110.932670 5.651094 5.560293 5.221190 -11.418685 -48.618480 3.073215 -126.038626 84.967899 -112.490383 -30.381613 -3.032094 -7.241795 0.092002 -13.005139 -1.209270 -17.117245 -51.121695 24.570648 -80.166467 67.162874 -83.358402 30.402405 5.250781 12.829989 0.015497 -0.724903 0.016236
-150.558887 49.357689 19.102809 171.255340 -34.542030 -5.344783 1.068459 20.240641 2.599162 0.103091 2.561459 0.234360 0.151215 4.177463 0.366281 0.869742 17.385119 1.673114 6.308237 19.144785 -1.734288 12.126804 0.183429 -5.108724 -0.303517 -3.592087 -1.901738 5.841369 -11.397364 -13.084644 -38.950778 -42.161106 90.636012 2.804223 1.131956 -5.634109 -1.403847 -2.415155 3.208703 -3.805671 -3.367159 12.383266 70.523675 -60.037886 -110.952092 5.633240 5.566122 5.194049 -11.405015 -48.634735 3.083025 -125.985850 84.955190 -112.453679 -30.404362 -3.021383 -7.226724 0.126289 -13.005454 -1.213308 -17.110146 -51.123041 24.568423 -80.145449 67.151233 -83.347668 30.405457 5.245161 12.835201 0.013191 -0.719007 0.014889
-150.558064 49.358736 19.102389 171.252407 -34.530709 -5.336369 1.075838 20.237265 2.601315 0.104308 2.559819 0.236297 0.151841 4.178953 0.366299 0.896408 17.392523 1.693422 6.352804 19.154643 -1.719918 12.195682 0.204704 -5.092226 -0.331729 -3.607681 -1.914395 5.854762 -11.395591 -13.082995 -38.942874 -42.160392 90.627528 2.813839 1.126692 -5.635706 -1.430181 -2.432351 3.188522 -3.804055 -3.367638 12.402194 70.537315 -60.059526 -110.967214 5.642889 5.567388 5.174833 -11.394884 -48.654604 3.088981 -126.072760 84.963381 -112.561910 -30.381952 -2.995392 -7.224275 0.104415 -13.011974 -1.204037 -17.106117 -51.130868 24.570424 -80.130033 67.140649 -83.339889 30.414746 5.243447 12.842953 0.007580 -0.717334 0.011598
-150.558073 49.359726 19.101626 171.252977 -34.521729 -5.330489 1.088368 20.237229 2.614458 0.098626 2.554993 0.230434 0.164516 4.186879 0.376858 0.878990 17.383964 1.682325 6.439100 19.174816 -1.689802 12.277109 0.227621 -5.073768 -0.328106 -3.613400 -1.904075 5.865740 -11.391398 -13.091485 -38.945053 -42.162454 90.624732 2.818272 1.124879 -5.645209 -1.433439 -2.437155 3.178533 -3.800877 -3.368871 12.424811 70.560899 -60.077117 -110.986821 5.613583 5.593608 5.133969 -11.380196 -48.671062 3.087405 -126.076663 84.959991 -112.571519 -30.388170 -2.980819 -7.219164 0.129616 -13.016695 -1.205823 -17.104248 -51.138298 24.572970 -80.121069 67.126331 -83.338119 30.421870 5.246200 12.850801 0.003923 -0.719352 0.008007
-150.559410 49.360464 19.100541 171.254019 -34.513933 -5.322134 1.086239 20.230586 2.607596 0.105350 2.556987 0.236126 0.162650 4.186575 0.376067 0.880547 17.384780 1.682531 6.517031 19.189611 -1.664447 12.397754 0.258945 -5.050985 -0.329959 -3.620373 -1.893318 5.876144 -11.385871 -13.096582 -38.937577 -42.172851 90.615098 2.815853 1.118198 -5.652101 -1.438126 -2.442387 3.164392 -3.795393 -3.375572 12.469295 70.587863 -60.078706 -111.018266 5.590966 5.629024 5.095957 -11.361016 -48.686470 3.076044 -126.141891 84.962406 -112.645228 -30.373953 -2.964140 -7.218810 0.083329 -13.021401 -1.189253 -17.096785 -51.147089 24.565548 -80.117405 67.118337 -83.340598 30.428642 5.245911 12.858420 -0.003627 -0.720794 0.004879
-150.562406 49.361346 19.098304 171.263747 -34.511413 -5.312642 1.079365 20.230985 2.602204 0.103257 2.556148 0.231283 0.160105 4.185929 0.374972 0.902995 17.387912 1.694649 6.594694 19.204841 -1.640275 12.547090 0.296052 -5.025052 -0.343758 -3.632002 -1.891133 5.875588 -11.376821 -13.096603 -38.928396 -42.190868 90.622567 2.805917 1.114905 -5.656579 -1.458822 -2.450043 3.141216 -3.795027 -3.386185 12.520407 70.654043 -60.102043 -111.079439 5.612977 5.675459 5.070496 -11.348274 -48.694697 3.057359 -126.170880 84.966135 -112.681576 -30.403027 -2.959317 -7.200340 0.047726 -13.022904 -1.186122 -17.086567 -51.153809 24.545662 -80.119806 67.115033 -83.348260 30.425284 5.247765 12.862607 -0.000965 -0.723876 0.004338
-150.565165 49.362237 19.095590 171.278635 -34.511727 -5.311167 1.083119 20.236796 2.607815 0.090210 2.552554 0.224544 0.166563 4.187200 0.378028 0.897947 17.386244 1.693793 6.709166 19.225062 -1.605840 12.728173 0.340387 -4.996607 -0.347608 -3.639982 -1.878890 5.875969 -11.368452 -13.106811 -38.926424 -42.201401 90.618770 2.824236 1.119641 -5.594645 -1.466516 -2.454303 3.124719 -3.796978 -3.398659 12.573670 70.723352 -60.105735 -111.142856 5.614611 5.738585 5.048983 -11.322832 -48.699769 3.034938 -126.152803 84.963072 -112.657204 -30.451122 -2.956717 -7.175283 0.097135 -13.022679 -1.202094 -17.080187 -51.158343 24.530129 -80.128940 67.111791 -83.358608 30.417469 5.250499 12.862558 0.006302 -0.726735 0.007137
-150.566488 49.361446 19.095264 171.277595 -34.497256 -5.314740 1.086855 20.222783 2.614430 0.098389 2.554226 0.229376 0.166917 4.186443 0.378432 0.920193 17.386073 1.708353 6.817620 19.249123 -1.574524 12.945032 0.394269 -4.966471 -0.373346 -3.648911 -1.878997 5.871030 -11.357045 -13.101183 -38.921869 -42.224046 90.595414 2.831142 1.114616 -5.539695 -1.500161 -2.457978 3.109623 -3.815910 -3.432898 12.644818 70.744229 -60.051619 -111.147269 5.570815 5.807987 5.022745 -11.295981 -48.722685 3.027475 -126.233991 84.953088 -112.729820 -30.407163 -2.939365 -7.203447 0.083023 -13.027413 -1.170999 -17.089735 -51.171105 24.545469 -80.130834 67.109650 -83.363016 30.416900 5.246129 12.863266 0.006003 -0.722529 0.007585
-150.570001 49.360879 19.093238 171.286136 -34.489589 -5.311813 1.090687 20.218942 2.619779 0.098861 2.553819 0.229791 0.167529 4.185944 0.379334 0.921421 17.383844 1.710557 6.967384 19.279030 -1.533319 13.203507 0.459694 -4.932887 -0.384885 -3.660965 -1.874857 5.854324 -11.347659 -13.088451 -38.899537 -42.245054 90.552701 2.839865 1.103027 -5.454773 -1.523263 -2.460275 3.079896 -3.822463 -3.442545 12.693001 70.782211 -60.046055 -111.176277 5.500326 5.900258 4.992310 -11.273714 -48.737696 3.008731 -126.277262 84.945653 -112.767169 -30.414346 -2.937913 -7.208062 0.088905 -13.025628 -1.157927 -17.084177 -51.182742 24.530227 -80.134859 67.112385 -83.366071 30.422193 5.245025 12.866084 0.002223 -0.722504 0.006845
-150.575001 49.360862 19.089306 171.302010 -34.491523 -5.304344 1.085466 20.224717 2.617618 0.098868 2.553445 0.230018 0.167631 4.185285 0.379568 0.914046 17.381872 1.705522 7.152711 19.312636 -1.485167 13.505155 0.537623 -4.893152 -0.369790 -3.665986 -1.867201 5.824758 -11.343551 -13.079968 -38.879567 -42.265164 90.493885 2.845474 1.076520 -5.329255 -1.546030 -2.462212 3.048116 -3.835963 -3.467252 12.769325 71.044881 -60.111714 -111.384760 5.520993 6.089400 4.963280 -11.256683 -48.742275 2.981093 -126.339113 84.933487 -112.838885 -30.403246 -2.938529 -7.195772 0.079388 -13.020570 -1.152448 -17.067163 -51.187803 24.496766 -80.134065 67.119961 -83.369969 30.427874 5.244826 12.878539 -0.006518 -0.726562 0.003717
-150.579242 49.359243 19.087541 171.319168 -34.478190 -5.305203 1.084492 20.218708 2.623502 0.118588 2.550759 0.236830 0.167958 4.179543 0.379505 0.882966 17.382964 1.697200 7.363785 19.347534 -1.432559 13.850745 0.630345 -4.846533 -0.368416 -3.669732 -1.864865 5.798040 -11.354566 -13.053591 -38.825136 -42.289041 90.394092 2.845323 1.022928 -5.161369 -1.569264 -2.469592 3.018012 -3.853735 -3.497876 12.841149 71.306982 -60.166279 -111.572136 5.471554 6.315691 4.915263 -11.251657 -48.760579 2.963385 -126.394018 84.928362 -112.893361 -30.400330 -2.938634 -7.197731 0.081379 -13.017776 -1.143296 -17.053331 -51.214066 24.468018 -80.158964 67.124903 -83.380912 30.432293 5.249072 12.881364 -0.008842 -0.730686 0.002574
-150.584351 49.357378 19.085603 171.341447 -34.464352 -5.304168 1.100269 20.202638 2.635225 0.089532 2.551846 0.227368 0.178539 4.170558 0.381580 0.908529 17.364239 1.703630 7.569420 19.410239 -1.365328 14.240487 0.743623 -4.791221 -0.373327 -3.722510 -1.819397 5.756771 -11.274803 -13.079345 -38.785780 -42.313932 90.296782 2.841984 0.946223 -4.949597 -1.628513 -2.451759 2.984546 -3.872065 -3.538549 12.919570 71.599633 -60.231902 -111.768099 5.346647 6.584684 4.845749 -11.208798 -48.787734 2.921274 -126.483806 84.909980 -112.966478 -30.409857 -2.931983 -7.187654 0.112157 -13.019927 -1.141457 -17.057490 -51.232148 24.448749 -80.163594 67.125343 -83.384846 30.427787 5.243548 12.879343 -0.003996 -0.723419 0.004289
-150.589692 49.356094 19.082631 171.366664 -34.458189 -5.302589 1.096187 20.188599 2.631917 0.076464 2.557955 0.224025 0.185250 4.161852 0.382915 0.921892 17.347884 1.705605 7.820375 19.478266 -1.291625 14.670462 0.886353 -4.723025 -0.390866 -3.723802 -1.802365 5.669590 -11.269940 -13.045120 -38.663366 -42.345285 90.152669 2.834370 0.862146 -4.689213 -1.671294 -2.434482 2.956628 -3.926859 -3.659245 13.000476 71.895689 -60.317999 -111.892939 5.166748 6.922601 4.756927 -11.191424 -48.802543 2.891966 -126.503202 84.892333 -112.988185 -30.423714 -2.928201 -7.165973 0.084323 -13.020666 -1.135522 -17.044468 -51.248246 24.410016 -80.177458 67.128503 -83.388713 30.427167 5.243382 12.879709 -0.002738 -0.722524 0.004298
